<svg
   width="90.610199mm"
   height="90.610161mm"
   viewBox="0 0 90.610199 90.610161"
   version="1.1"
   id="svg2940"
   sodipodi:docname="favicon.svg"
   inkscape:version="1.2.1 (9c6d41e, 2022-07-14)"
   xmlns:inkscape="http://www.inkscape.org/namespaces/inkscape"
   xmlns:sodipodi="http://sodipodi.sourceforge.net/DTD/sodipodi-0.dtd"
   xmlns="http://www.w3.org/2000/svg"
   xmlns:svg="http://www.w3.org/2000/svg">
  <sodipodi:namedview
     id="namedview11"
     pagecolor="#ffffff"
     bordercolor="#666666"
     borderopacity="1.0"
     inkscape:showpageshadow="2"
     inkscape:pageopacity="0.0"
     inkscape:pagecheckerboard="0"
     inkscape:deskcolor="#d1d1d1"
     inkscape:document-units="mm"
     showgrid="false"
     inkscape:zoom="0.68912433"
     inkscape:cx="171.95736"
     inkscape:cy="171.2318"
     inkscape:window-width="1512"
     inkscape:window-height="858"
     inkscape:window-x="0"
     inkscape:window-y="38"
     inkscape:window-maximized="1"
     inkscape:current-layer="layer1" />
  <defs
     id="defs2937" />
  <g
     id="layer1"
     transform="translate(-62.923759,-105.71189)">
    <circle
       style="display:inline;fill:#1e293b;stroke-width:0.264583;fill-opacity:1;fill-rule:nonzero"
       id="path3816"
       cx="108.22881"
       cy="151.01695"
       r="45.305084"
       transform="translate(-2.3125e-6)"
       inkscape:label="circle" />
    <g
       id="g14"
       transform="matrix(83.956399,18.257806,18.805541,-86.475092,91.456265,183.59415)"
       style="display:inline"
       inkscape:label="heand">
      <g
         id="g254"
         transform="matrix(0.02202446,0,0,-0.02138293,-0.27870616,0.7837116)"
         style="display:inline">
        <path
           fill="#ef9645"
           d="m 32.302,24.347 c -0.695,-1.01 -0.307,-2.47 -0.48,-4.082 -0.178,-2.63 -1.308,-5.178 -3.5,-7.216 L 20.856,6.107 c 0,0 -1.471,-1.369 -2.841,0.103 -1.368,1.471 0.104,2.84 0.104,2.84 l 3.154,2.934 2.734,2.542 c 0,0 -0.685,0.736 -3.711,-2.078 L 10.076,2.942 c 0,0 -1.473,-1.368 -2.842,0.104 -1.368,1.471 0.103,2.84 0.103,2.84 l 9.664,8.989 c -0.021,-0.02 -0.731,0.692 -0.744,0.68 L 5.917,5.938 c 0,0 -1.472,-1.369 -2.841,0.103 -1.369,1.472 0.103,2.84 0.103,2.84 L 13.52,18.5 c 0.012,0.012 -0.654,0.764 -0.634,0.783 l -8.92,-8.298 c 0,0 -1.472,-1.369 -2.841,0.103 -1.369,1.472 0.103,2.841 0.103,2.841 l 9.484,8.82 c 0.087,0.081 -0.5,0.908 -0.391,1.009 L 3.487,17.402 c 0,0 -1.472,-1.369 -2.841,0.104 -1.369,1.472 0.103,2.841 0.103,2.841 L 11.896,30.71 c 1.861,1.731 3.772,2.607 6.076,2.928 0.469,0.065 1.069,0.065 1.315,0.096 0.777,0.098 1.459,0.374 2.372,0.934 1.175,0.72 2.938,1.02 3.951,-0.063 l 3.454,-3.695 3.189,-3.412 c 1.012,-1.082 0.831,-2.016 0.049,-3.151 z"
           id="path239" />
        <path
           fill="#ffdb5e"
           d="m 35.39,23.822 c -0.661,-1.032 -0.224,-2.479 -0.342,-4.096 -0.09,-2.634 -1.133,-5.219 -3.255,-7.33 L 24.565,5.207 c 0,0 -1.424,-1.417 -2.843,0.008 -1.417,1.424 0.008,2.842 0.008,2.842 l 3.054,3.039 2.646,2.632 c 0,0 -0.71,0.712 -3.639,-2.202 -2.931,-2.915 -9.894,-9.845 -9.894,-9.845 0,0 -1.425,-1.417 -2.843,0.008 -1.418,1.424 0.007,2.841 0.007,2.841 l 9.356,9.31 c -0.02,-0.02 -0.754,0.667 -0.767,0.654 L 9.64,4.534 c 0,0 -1.425,-1.418 -2.843,0.007 -1.417,1.425 0.007,2.842 0.007,2.842 l 10.011,9.962 c 0.012,0.012 -0.68,0.741 -0.66,0.761 L 7.52,9.513 c 0,0 -1.425,-1.417 -2.843,0.008 -1.418,1.425 0.007,2.843 0.007,2.843 l 9.181,9.135 c 0.084,0.083 -0.53,0.891 -0.425,0.996 L 6.824,15.912 c 0,0 -1.425,-1.417 -2.843,0.008 -1.418,1.425 0.007,2.843 0.007,2.843 l 10.79,10.732 c 1.802,1.793 3.682,2.732 5.974,3.131 0.467,0.081 1.067,0.101 1.311,0.14 0.773,0.124 1.445,0.423 2.34,1.014 1.15,0.759 2.902,1.118 3.951,0.07 l 3.577,-3.576 3.302,-3.302 c 1.049,-1.05 0.9,-1.99 0.157,-3.15 z"
           id="path243" />
      </g>
    </g>
    <path
       style="fill:#ff7f2a;fill-opacity:1;stroke:none;stroke-width:0.13941"
       d="m 121.05347,173.66374 c -2.20506,-0.8175 -6.94747,-2.88397 -8.65333,-3.77063 -3.69052,-1.9182 -4.83314,-3.07187 -5.55143,-5.60512 -0.30149,-1.06331 -0.33684,-1.41269 -0.22794,-2.25274 0.14294,-1.10267 0.67631,-2.17298 1.53951,-3.08933 0.49793,-0.5286 0.66612,-0.61679 2.12418,-1.11385 1.47924,-0.50428 1.64327,-0.53212 2.49249,-0.42335 0.61095,0.0783 1.519,0.40422 2.76911,0.99401 l 1.86007,0.87755 0.92576,-1.8209 c 1.07571,-2.11582 1.68367,-2.80368 3.07899,-3.48367 1.11383,-0.5428 2.01799,-0.70485 3.14352,-0.56338 1.02223,0.12849 2.44731,0.83587 3.19423,1.58553 0.54522,0.54723 0.63658,0.72513 1.14748,2.23467 0.52303,1.54535 0.54883,1.69723 0.44672,2.62911 -0.0596,0.54396 -0.23442,1.44804 -0.38847,2.00906 -0.36588,1.33235 -2.01963,4.80232 -3.50907,7.36286 -1.2664,2.17711 -2.9292,4.82806 -3.05537,4.87107 -0.0422,0.0144 -0.64359,-0.18402 -1.33645,-0.44089 z"
       id="path757"
       inkscape:label="heart" />
  </g>
</svg>
